<mxfile host="app.diagrams.net" agent="Mozilla/5.0 (Windows NT 10.0; Win64; x64) AppleWebKit/537.36 (KHTML, like Gecko) Chrome/135.0.0.0 Safari/537.36" version="26.2.9">
  <diagram name="Page-1" id="Qh9Fn2kug38Hm_EOuBje">
    <mxGraphModel dx="2068" dy="1047" grid="1" gridSize="10" guides="1" tooltips="1" connect="1" arrows="1" fold="1" page="1" pageScale="1" pageWidth="827" pageHeight="1169" math="0" shadow="0">
      <root>
        <mxCell id="0" />
        <mxCell id="1" parent="0" />
        <mxCell id="MICkrWPUPjy-vN6kk5Nm-11" value="" style="endArrow=none;html=1;rounded=0;" edge="1" parent="1">
          <mxGeometry width="50" height="50" relative="1" as="geometry">
            <mxPoint x="320" y="520" as="sourcePoint" />
            <mxPoint x="320" y="470" as="targetPoint" />
          </mxGeometry>
        </mxCell>
        <mxCell id="MICkrWPUPjy-vN6kk5Nm-12" value="" style="endArrow=none;html=1;rounded=0;entryX=0;entryY=0.75;entryDx=0;entryDy=0;curved=1;" edge="1" parent="1" target="MICkrWPUPjy-vN6kk5Nm-3">
          <mxGeometry width="50" height="50" relative="1" as="geometry">
            <mxPoint x="320" y="490" as="sourcePoint" />
            <mxPoint x="370" y="450" as="targetPoint" />
            <Array as="points">
              <mxPoint x="330" y="490" />
            </Array>
          </mxGeometry>
        </mxCell>
        <mxCell id="MICkrWPUPjy-vN6kk5Nm-3" value="" style="rounded=0;whiteSpace=wrap;html=1;rotation=33;" vertex="1" parent="1">
          <mxGeometry x="352" y="413" width="10" height="120" as="geometry" />
        </mxCell>
        <mxCell id="MICkrWPUPjy-vN6kk5Nm-5" value="" style="endArrow=classic;startArrow=classic;html=1;rounded=0;" edge="1" parent="1">
          <mxGeometry width="50" height="50" relative="1" as="geometry">
            <mxPoint x="345" y="537" as="sourcePoint" />
            <mxPoint x="411" y="436" as="targetPoint" />
          </mxGeometry>
        </mxCell>
        <mxCell id="MICkrWPUPjy-vN6kk5Nm-10" value="L" style="edgeLabel;html=1;align=center;verticalAlign=middle;resizable=0;points=[];" vertex="1" connectable="0" parent="MICkrWPUPjy-vN6kk5Nm-5">
          <mxGeometry x="-0.0045" y="1" relative="1" as="geometry">
            <mxPoint as="offset" />
          </mxGeometry>
        </mxCell>
        <mxCell id="MICkrWPUPjy-vN6kk5Nm-6" value="" style="endArrow=none;html=1;rounded=0;" edge="1" parent="1">
          <mxGeometry width="50" height="50" relative="1" as="geometry">
            <mxPoint x="402" y="431" as="sourcePoint" />
            <mxPoint x="419" y="442" as="targetPoint" />
          </mxGeometry>
        </mxCell>
        <mxCell id="MICkrWPUPjy-vN6kk5Nm-7" value="" style="endArrow=none;html=1;rounded=0;" edge="1" parent="1">
          <mxGeometry width="50" height="50" relative="1" as="geometry">
            <mxPoint x="337" y="531" as="sourcePoint" />
            <mxPoint x="354" y="542" as="targetPoint" />
          </mxGeometry>
        </mxCell>
        <mxCell id="MICkrWPUPjy-vN6kk5Nm-14" value="&lt;p class=&quot;MsoNormal&quot;&gt;&lt;span style=&quot;color: rgb(31, 31, 31); font-family: &amp;quot;Google Sans&amp;quot;, Arial, sans-serif; text-align: start; background-color: rgb(255, 255, 255);&quot;&gt;&lt;font style=&quot;font-size: 11px;&quot;&gt;Î¸&lt;/font&gt;&lt;/span&gt;&lt;/p&gt;" style="text;html=1;align=center;verticalAlign=middle;whiteSpace=wrap;rounded=0;" vertex="1" parent="1">
          <mxGeometry x="322" y="468" width="18" height="30" as="geometry" />
        </mxCell>
        <mxCell id="MICkrWPUPjy-vN6kk5Nm-19" value="" style="endArrow=none;html=1;rounded=0;entryX=1;entryY=0;entryDx=0;entryDy=0;" edge="1" parent="1" target="MICkrWPUPjy-vN6kk5Nm-3">
          <mxGeometry width="50" height="50" relative="1" as="geometry">
            <mxPoint x="370" y="410" as="sourcePoint" />
            <mxPoint x="392" y="424" as="targetPoint" />
          </mxGeometry>
        </mxCell>
        <mxCell id="MICkrWPUPjy-vN6kk5Nm-25" value="" style="endArrow=none;html=1;rounded=0;entryX=1;entryY=1;entryDx=0;entryDy=0;" edge="1" parent="1" target="MICkrWPUPjy-vN6kk5Nm-3">
          <mxGeometry width="50" height="50" relative="1" as="geometry">
            <mxPoint x="305" y="511" as="sourcePoint" />
            <mxPoint x="329" y="526" as="targetPoint" />
          </mxGeometry>
        </mxCell>
      </root>
    </mxGraphModel>
  </diagram>
</mxfile>
